<?xml version="1.0" encoding="UTF-8" standalone="no"?>
<!DOCTYPE svg PUBLIC "-//W3C//DTD SVG 1.1//EN" "http://www.w3.org/Graphics/SVG/1.1/DTD/svg11.dtd">
<svg width="100%" height="100%" viewBox="0 0 718 198" version="1.1" xmlns="http://www.w3.org/2000/svg" xmlns:xlink="http://www.w3.org/1999/xlink" xml:space="preserve" xmlns:serif="http://www.serif.com/" style="fill-rule:evenodd;clip-rule:evenodd;stroke-linejoin:round;stroke-miterlimit:2;">
    <g transform="matrix(1,0,0,1,-80.08755,0)">
        <g id="Main-Logo" serif:id="Main Logo" transform="matrix(0.3503,0,0,0.128605,80.08755,0)">
            <rect x="0" y="0" width="2048" height="1536" style="fill:none;"/>
            <g transform="matrix(1.944403,0,0,5.296277,86.600315,-1931.835358)">
                <g>
                    <g transform="matrix(130,0,0,130,481.007264,559.728814)">
                        <path d="M0.409,-0.277C0.42,-0.256 0.43,-0.235 0.438,-0.213C0.443,-0.224 0.447,-0.235 0.452,-0.246C0.456,-0.257 0.461,-0.268 0.467,-0.278L0.667,-0.628C0.669,-0.633 0.672,-0.637 0.675,-0.64C0.677,-0.643 0.68,-0.645 0.684,-0.646C0.687,-0.647 0.691,-0.648 0.695,-0.648C0.699,-0.648 0.704,-0.648 0.709,-0.648L0.806,-0.648L0.806,-0L0.693,-0L0.693,-0.406C0.693,-0.415 0.694,-0.424 0.694,-0.434C0.695,-0.445 0.695,-0.455 0.696,-0.466L0.492,-0.104C0.482,-0.085 0.467,-0.075 0.447,-0.075L0.429,-0.075C0.409,-0.075 0.394,-0.085 0.384,-0.104L0.177,-0.468C0.179,-0.457 0.18,-0.446 0.18,-0.435C0.181,-0.425 0.181,-0.415 0.181,-0.406L0.181,-0L0.068,-0L0.068,-0.648L0.165,-0.648C0.171,-0.648 0.175,-0.648 0.179,-0.648C0.184,-0.648 0.187,-0.647 0.191,-0.646C0.194,-0.644 0.197,-0.642 0.2,-0.64C0.203,-0.637 0.205,-0.633 0.208,-0.628L0.409,-0.277Z" style="fill:white;fill-rule:nonzero;"/>
                    </g>
                    <g transform="matrix(130,0,0,130,594.630311,559.728814)">
                        <path d="M0.653,-0.325C0.653,-0.277 0.646,-0.233 0.631,-0.193C0.616,-0.152 0.595,-0.117 0.567,-0.087C0.54,-0.058 0.507,-0.035 0.468,-0.018C0.429,-0.001 0.386,0.007 0.339,0.007C0.292,0.007 0.249,-0.001 0.21,-0.018C0.171,-0.035 0.138,-0.058 0.11,-0.087C0.083,-0.117 0.061,-0.152 0.046,-0.193C0.031,-0.233 0.023,-0.277 0.023,-0.325C0.023,-0.372 0.031,-0.416 0.046,-0.456C0.061,-0.497 0.083,-0.532 0.11,-0.561C0.138,-0.591 0.171,-0.614 0.21,-0.631C0.249,-0.647 0.292,-0.656 0.339,-0.656C0.386,-0.656 0.429,-0.647 0.468,-0.631C0.507,-0.614 0.54,-0.591 0.567,-0.561C0.595,-0.531 0.616,-0.496 0.631,-0.456C0.646,-0.416 0.653,-0.372 0.653,-0.325ZM0.522,-0.325C0.522,-0.359 0.518,-0.39 0.51,-0.417C0.501,-0.445 0.489,-0.468 0.473,-0.487C0.458,-0.507 0.438,-0.521 0.416,-0.531C0.393,-0.542 0.368,-0.547 0.339,-0.547C0.31,-0.547 0.285,-0.542 0.262,-0.531C0.239,-0.521 0.22,-0.507 0.204,-0.487C0.188,-0.468 0.176,-0.445 0.167,-0.417C0.159,-0.39 0.155,-0.359 0.155,-0.325C0.155,-0.29 0.159,-0.259 0.167,-0.231C0.176,-0.204 0.188,-0.18 0.204,-0.161C0.22,-0.142 0.239,-0.128 0.262,-0.118C0.285,-0.108 0.31,-0.103 0.339,-0.103C0.368,-0.103 0.393,-0.108 0.416,-0.118C0.438,-0.128 0.458,-0.142 0.473,-0.161C0.489,-0.18 0.501,-0.204 0.51,-0.231C0.518,-0.259 0.522,-0.29 0.522,-0.325Z" style="fill:white;fill-rule:nonzero;"/>
                    </g>
                    <g transform="matrix(130,0,0,130,679.688905,559.728814)">
                        <path d="M0.486,-0.648L0.486,-0.544L0.312,-0.544L0.312,-0L0.184,-0L0.184,-0.544L0.009,-0.544L0.009,-0.648L0.486,-0.648Z" style="fill:white;fill-rule:nonzero;"/>
                    </g>
                    <g transform="matrix(130,0,0,130,744.054139,559.728814)">
                        <rect x="0.069" y="-0.648" width="0.129" height="0.648" style="fill:white;fill-rule:nonzero;"/>
                    </g>
                    <g transform="matrix(130,0,0,130,778.712342,559.728814)">
                        <path d="M0.653,-0.325C0.653,-0.277 0.646,-0.233 0.631,-0.193C0.616,-0.152 0.595,-0.117 0.567,-0.087C0.54,-0.058 0.507,-0.035 0.468,-0.018C0.429,-0.001 0.386,0.007 0.339,0.007C0.292,0.007 0.249,-0.001 0.21,-0.018C0.171,-0.035 0.138,-0.058 0.11,-0.087C0.083,-0.117 0.061,-0.152 0.046,-0.193C0.031,-0.233 0.023,-0.277 0.023,-0.325C0.023,-0.372 0.031,-0.416 0.046,-0.456C0.061,-0.497 0.083,-0.532 0.11,-0.561C0.138,-0.591 0.171,-0.614 0.21,-0.631C0.249,-0.647 0.292,-0.656 0.339,-0.656C0.386,-0.656 0.429,-0.647 0.468,-0.631C0.507,-0.614 0.54,-0.591 0.567,-0.561C0.595,-0.531 0.616,-0.496 0.631,-0.456C0.646,-0.416 0.653,-0.372 0.653,-0.325ZM0.522,-0.325C0.522,-0.359 0.518,-0.39 0.51,-0.417C0.501,-0.445 0.489,-0.468 0.473,-0.487C0.458,-0.507 0.438,-0.521 0.416,-0.531C0.393,-0.542 0.368,-0.547 0.339,-0.547C0.31,-0.547 0.285,-0.542 0.262,-0.531C0.239,-0.521 0.22,-0.507 0.204,-0.487C0.188,-0.468 0.176,-0.445 0.167,-0.417C0.159,-0.39 0.155,-0.359 0.155,-0.325C0.155,-0.29 0.159,-0.259 0.167,-0.231C0.176,-0.204 0.188,-0.18 0.204,-0.161C0.22,-0.142 0.239,-0.128 0.262,-0.118C0.285,-0.108 0.31,-0.103 0.339,-0.103C0.368,-0.103 0.393,-0.108 0.416,-0.118C0.438,-0.128 0.458,-0.142 0.473,-0.161C0.489,-0.18 0.501,-0.204 0.51,-0.231C0.518,-0.259 0.522,-0.29 0.522,-0.325Z" style="fill:white;fill-rule:nonzero;"/>
                    </g>
                    <g transform="matrix(130,0,0,130,866.627381,559.728814)">
                        <path d="M0.127,-0.648C0.132,-0.648 0.137,-0.648 0.141,-0.648C0.145,-0.647 0.149,-0.646 0.152,-0.645C0.155,-0.643 0.158,-0.641 0.16,-0.639C0.163,-0.636 0.166,-0.633 0.17,-0.628L0.489,-0.208C0.487,-0.229 0.486,-0.249 0.486,-0.269L0.486,-0.648L0.599,-0.648L0.599,-0L0.533,-0C0.523,-0 0.515,-0.002 0.508,-0.005C0.501,-0.009 0.495,-0.014 0.488,-0.022L0.17,-0.44C0.172,-0.42 0.173,-0.402 0.173,-0.384L0.173,-0L0.06,-0L0.06,-0.648L0.127,-0.648Z" style="fill:white;fill-rule:nonzero;"/>
                    </g>
                </g>
            </g>
            <g transform="matrix(1.944403,0,0,5.296277,-796.555841,-1940.328971)">
                <g>
                    <g transform="matrix(130,0,0,130,481.007264,559.728814)">
                        <path d="M0.409,-0.277C0.42,-0.256 0.43,-0.235 0.438,-0.213C0.443,-0.224 0.447,-0.235 0.452,-0.246C0.456,-0.257 0.461,-0.268 0.467,-0.278L0.667,-0.628C0.669,-0.633 0.672,-0.637 0.675,-0.64C0.677,-0.643 0.68,-0.645 0.684,-0.646C0.687,-0.647 0.691,-0.648 0.695,-0.648C0.699,-0.648 0.704,-0.648 0.709,-0.648L0.806,-0.648L0.806,-0L0.693,-0L0.693,-0.406C0.693,-0.415 0.694,-0.424 0.694,-0.434C0.695,-0.445 0.695,-0.455 0.696,-0.466L0.492,-0.104C0.482,-0.085 0.467,-0.075 0.447,-0.075L0.429,-0.075C0.409,-0.075 0.394,-0.085 0.384,-0.104L0.177,-0.468C0.179,-0.457 0.18,-0.446 0.18,-0.435C0.181,-0.425 0.181,-0.415 0.181,-0.406L0.181,-0L0.068,-0L0.068,-0.648L0.165,-0.648C0.171,-0.648 0.175,-0.648 0.179,-0.648C0.184,-0.648 0.187,-0.647 0.191,-0.646C0.194,-0.644 0.197,-0.642 0.2,-0.64C0.203,-0.637 0.205,-0.633 0.208,-0.628L0.409,-0.277Z" style="fill:white;fill-rule:nonzero;"/>
                    </g>
                    <g transform="matrix(130,0,0,130,594.630311,559.728814)">
                        <path d="M0.453,-0.648L0.453,-0.546L0.187,-0.546L0.187,-0.375L0.394,-0.375L0.394,-0.277L0.187,-0.277L0.187,-0.102L0.454,-0.102L0.453,-0L0.058,-0L0.058,-0.648L0.453,-0.648Z" style="fill:white;fill-rule:nonzero;"/>
                    </g>
                    <g transform="matrix(130,0,0,130,656.773865,559.728814)">
                        <path d="M0.401,-0.526C0.398,-0.52 0.394,-0.515 0.389,-0.512C0.385,-0.51 0.38,-0.508 0.373,-0.508C0.367,-0.508 0.36,-0.511 0.353,-0.515C0.346,-0.52 0.337,-0.525 0.328,-0.53C0.318,-0.535 0.307,-0.54 0.294,-0.545C0.282,-0.549 0.267,-0.552 0.25,-0.552C0.221,-0.552 0.199,-0.545 0.184,-0.53C0.17,-0.516 0.162,-0.497 0.162,-0.474C0.162,-0.459 0.166,-0.447 0.174,-0.438C0.182,-0.428 0.193,-0.42 0.206,-0.413C0.219,-0.406 0.234,-0.4 0.251,-0.394C0.267,-0.389 0.285,-0.383 0.302,-0.376C0.32,-0.37 0.337,-0.362 0.354,-0.354C0.371,-0.345 0.385,-0.334 0.399,-0.321C0.412,-0.308 0.422,-0.292 0.43,-0.273C0.438,-0.255 0.442,-0.232 0.442,-0.205C0.442,-0.175 0.438,-0.148 0.428,-0.122C0.418,-0.096 0.404,-0.074 0.386,-0.055C0.367,-0.036 0.344,-0.021 0.318,-0.01C0.291,0.001 0.26,0.007 0.226,0.007C0.206,0.007 0.187,0.005 0.167,0.001C0.148,-0.003 0.129,-0.009 0.111,-0.017C0.093,-0.024 0.076,-0.033 0.061,-0.043C0.045,-0.054 0.031,-0.066 0.019,-0.079L0.057,-0.14C0.06,-0.145 0.064,-0.148 0.069,-0.151C0.074,-0.154 0.079,-0.156 0.085,-0.156C0.093,-0.156 0.101,-0.153 0.109,-0.147C0.117,-0.141 0.127,-0.134 0.138,-0.127C0.149,-0.119 0.162,-0.113 0.177,-0.107C0.191,-0.101 0.209,-0.098 0.229,-0.098C0.258,-0.098 0.281,-0.105 0.297,-0.12C0.314,-0.135 0.322,-0.157 0.322,-0.187C0.322,-0.203 0.318,-0.217 0.31,-0.227C0.302,-0.237 0.291,-0.246 0.278,-0.253C0.265,-0.26 0.25,-0.266 0.234,-0.271C0.217,-0.276 0.2,-0.282 0.182,-0.288C0.165,-0.293 0.148,-0.301 0.131,-0.309C0.114,-0.317 0.099,-0.328 0.086,-0.342C0.073,-0.355 0.063,-0.372 0.055,-0.393C0.047,-0.413 0.043,-0.438 0.043,-0.468C0.043,-0.492 0.048,-0.515 0.057,-0.537C0.066,-0.56 0.079,-0.58 0.097,-0.598C0.114,-0.615 0.136,-0.629 0.161,-0.64C0.187,-0.65 0.216,-0.656 0.249,-0.656C0.286,-0.656 0.321,-0.65 0.352,-0.638C0.384,-0.626 0.411,-0.609 0.434,-0.587L0.401,-0.526Z" style="fill:white;fill-rule:nonzero;"/>
                    </g>
                    <g transform="matrix(130,0,0,130,718.219178,559.728814)">
                        <path d="M0.576,-0L0.447,-0L0.447,-0.281L0.184,-0.281L0.184,-0L0.055,-0L0.055,-0.648L0.184,-0.648L0.184,-0.372L0.447,-0.372L0.447,-0.648L0.576,-0.648L0.576,-0Z" style="fill:white;fill-rule:nonzero;"/>
                    </g>
                </g>
            </g>
            <g transform="matrix(3.243586,0,0,8.835068,704.450356,124.907852)">
                <path d="M67.973,32.545C73.249,34.013 76.358,37.684 77.524,39.331C80.39,43.38 82.648,47.255 82.803,53.3C82.981,60.191 82.525,63.97 78.321,72.417C72.759,83.592 52.283,93.228 51.662,93.685C40.721,101.734 77.049,87.458 82.533,93.468C84.506,95.629 95.543,112.145 52.49,114.332C14.806,116.247 31.346,92.373 35.4,89.372C44.199,82.858 45.109,81.817 53.918,72.833C62.459,64.122 59.548,46.293 53.548,47.785C46.355,49.572 50.577,57.583 50.703,58.458C51.507,64.044 47.533,67.153 45.533,67.613C26.685,71.95 27.687,50.378 33.553,43.547C46.509,28.46 60.639,30.506 67.973,32.545Z" style="fill:white;"/>
            </g>
        </g>
    </g>
</svg>
