<?xml version="1.0" encoding="UTF-8" standalone="no"?>
<!DOCTYPE svg PUBLIC "-//W3C//DTD SVG 1.1//EN" "http://www.w3.org/Graphics/SVG/1.1/DTD/svg11.dtd">
<svg width="100%" height="100%" viewBox="0 0 256 256" version="1.1" xmlns="http://www.w3.org/2000/svg" xmlns:xlink="http://www.w3.org/1999/xlink" xml:space="preserve" xmlns:serif="http://www.serif.com/" style="fill-rule:evenodd;clip-rule:evenodd;stroke-linejoin:round;stroke-miterlimit:2;">
    <g transform="matrix(1,0,0,1,-276.928684,-604.917133)">
        <g id="Settings" transform="matrix(1,0,0,1,276.928684,604.917133)">
            <rect x="0" y="0" width="256" height="256" style="fill:none;"/>
            <g transform="matrix(1.07993,0,0,1.07993,-317.476261,-668.739064)">
                <path d="M424.326,657.489L470.601,675.371L458.78,701.996L487.319,690.967L506.487,734.138L477.948,745.166L506.487,756.194L487.319,799.365L458.78,788.337L470.601,814.961L424.326,832.843L412.505,806.218L400.683,832.843L354.408,814.961L366.23,788.337L337.69,799.365L318.522,756.194L347.062,745.166L318.522,734.138L337.69,690.967L366.23,701.996L354.408,675.371L400.683,657.489L412.505,684.114L424.326,657.489ZM430.37,672.104L422.973,688.762C421.136,692.9 417.033,695.568 412.505,695.568C407.977,695.568 403.874,692.9 402.036,688.762L394.64,672.104L369.759,681.719L376.698,697.347C378.579,701.584 377.721,706.536 374.525,709.893C371.329,713.251 366.425,714.35 362.101,712.68L343.734,705.582L333.873,727.79L351.19,734.482C355.605,736.188 358.516,740.433 358.516,745.166C358.516,749.899 355.605,754.144 351.19,755.85L333.873,762.542L343.734,784.75L362.101,777.652C366.425,775.982 371.329,777.082 374.525,780.439C377.721,783.796 378.579,788.748 376.698,792.985L369.759,808.614L394.64,818.228L402.036,801.57C403.874,797.432 407.977,794.764 412.505,794.764C417.033,794.764 421.136,797.432 422.973,801.57L430.37,818.228L455.251,808.614L448.312,792.985C446.431,788.748 447.288,783.796 450.484,780.439C453.681,777.082 458.585,775.982 462.909,777.652L481.276,784.75L491.137,762.542L473.819,755.85C469.405,754.144 466.494,749.899 466.494,745.166C466.494,740.433 469.405,736.188 473.819,734.482L491.137,727.79L481.276,705.582L462.909,712.68C458.585,714.35 453.681,713.251 450.484,709.893C447.288,706.536 446.431,701.584 448.312,697.347L455.251,681.719L430.37,672.104Z" style="fill:rgb(216,216,216);"/>
            </g>
            <g transform="matrix(0.603175,0,0,0.603175,-116.277393,-308.523027)">
                <circle cx="404.986" cy="736.952" r="31.843" style="fill:rgb(218,218,218);"/>
            </g>
        </g>
    </g>
</svg>
