<?xml version="1.0" encoding="UTF-8" standalone="no"?>
<!DOCTYPE svg PUBLIC "-//W3C//DTD SVG 1.1//EN" "http://www.w3.org/Graphics/SVG/1.1/DTD/svg11.dtd">
<svg width="100%" height="100%" viewBox="0 0 256 256" version="1.1" xmlns="http://www.w3.org/2000/svg" xmlns:xlink="http://www.w3.org/1999/xlink" xml:space="preserve" xmlns:serif="http://www.serif.com/" style="fill-rule:evenodd;clip-rule:evenodd;stroke-linejoin:round;stroke-miterlimit:2;">
    <g transform="matrix(1,0,0,1,-853.064108,-294.932969)">
        <g id="Upload" transform="matrix(1,0,0,1,853.064108,294.932969)">
            <rect x="0" y="0" width="256" height="256" style="fill:none;"/>
            <g transform="matrix(13.01357,0,0,13.01357,-26.868907,-28.162844)">
                <path d="M18,15L18,18L6,18L6,15L4,15L4,18C4,19.1 4.9,20 6,20L18,20C19.1,20 20,19.1 20,18L20,15L18,15ZM7,9L8.41,10.41L11,7.83L11,16L13,16L13,7.83L15.59,10.41L17,9L12,4L7,9Z" style="fill:rgb(212,212,212);fill-rule:nonzero;"/>
            </g>
        </g>
    </g>
</svg>
