<?xml version="1.0" encoding="UTF-8" standalone="no"?><!DOCTYPE svg PUBLIC "-//W3C//DTD SVG 1.1//EN" "http://www.w3.org/Graphics/SVG/1.1/DTD/svg11.dtd"><svg width="100%" height="100%" viewBox="0 0 128 128" version="1.1" xmlns="http://www.w3.org/2000/svg" xmlns:xlink="http://www.w3.org/1999/xlink" xml:space="preserve" xmlns:serif="http://www.serif.com/" style="fill-rule:evenodd;clip-rule:evenodd;stroke-linejoin:round;stroke-miterlimit:2;"><rect id="Zoom" x="0" y="0" width="128" height="128" style="fill:none;"/><path d="M76.252,7.751c20.908,0 37.882,16.974 37.882,37.882c0,20.908 -16.974,37.882 -37.882,37.882c-20.908,0 -37.882,-16.974 -37.882,-37.882c0,-20.908 16.974,-37.882 37.882,-37.882Zm0,12c-14.285,0 -25.882,11.597 -25.882,25.882c0,14.285 11.597,25.882 25.882,25.882c14.285,0 25.882,-11.597 25.882,-25.882c0,-14.285 -11.597,-25.882 -25.882,-25.882Z" style="fill:#e4e4e4;"/><path d="M54.235,88.747l-25.857,31.154l-16.309,-13.537l25.857,-31.154l16.309,13.537Z" style="fill:#e2e2e2;"/></svg>